<?xml version="1.0" standalone="no"?>
<!DOCTYPE svg PUBLIC "-//W3C//DTD SVG 20010904//EN"
 "http://www.w3.org/TR/2001/REC-SVG-20010904/DTD/svg10.dtd">
<svg version="1.0" xmlns="http://www.w3.org/2000/svg"
 width="60pt" height="60pt" viewBox="0 0 663.000000 663.000000"
 preserveAspectRatio="xMidYMid meet">

	<!-- Group with the entire icon with transformed coordinates -->
	<g transform="translate(0.000000,663.000000) scale(0.100000,-0.100000)" fill="#000000" stroke="none">

		<!-- Outer Circle (first circle of the double circle border) -->
		<path fill="#4957a2" d="M3240 6224 c-379 -33 -624 -87 -915 -201 -556 -219 -1039 -609 -1372
    -1108 -563 -843 -648 -1924 -225 -2850 335 -735 963 -1303 1727 -1562 313
    -106 604 -153 945 -153 477 0 894 97 1311 305 812 405 1391 1156 1574 2040 48
    235 69 630 46 868 -99 1017 -700 1895 -1611 2353 -299 150 -608 244 -955 289
    -117 15 -436 27 -525 19z m499 -119 c320 -40 595 -120 886 -260 644 -308 1146
    -843 1410 -1499 350 -873 247 -1855 -276 -2634 -122 -183 -231 -313 -388 -465
    -441 -424 -973 -682 -1596 -774 -185 -27 -592 -24 -784 6 -315 48 -629 150
    -898 291 -804 421 -1368 1212 -1497 2100 -98 676 43 1348 406 1929 213 342
    557 684 898 896 359 222 775 366 1190 414 131 15 514 12 649 -4z"/>

		<!-- Inner Circle (second circle of the double circle border) -->
		<path fill="#4957a2" d="M3230 5953 c-114 -7 -300 -35 -429 -64 -482 -110 -922 -353 -1276
    -704 -426 -421 -682 -937 -771 -1550 -22 -151 -25 -503 -5 -655 64 -502 247
    -948 549 -1340 101 -130 360 -383 497 -486 477 -356 1013 -534 1605 -534 545
    0 1035 148 1480 445 163 109 271 196 400 325 427 425 682 935 772 1545 17 120
    18 590 0 705 -60 392 -174 718 -358 1022 -199 330 -492 636 -803 843 -500 330
    -1070 484 -1661 448z m455 -104 c290 -29 566 -110 850 -249 685 -334 1190
    -958 1369 -1692 58 -239 70 -343 71 -618 0 -257 -7 -327 -52 -545 -56 -269
    -201 -622 -352 -853 -294 -450 -726 -805 -1219 -1001 -653 -260 -1404 -238
    -2040 60 -419 196 -797 523 -1055 911 -221 331 -359 701 -412 1103 -32 237
    -19 588 30 830 185 920 858 1668 1755 1953 332 105 684 139 1055 101z"/>

		<!-- Vertical Divider between the letters -->
		<path fill="#4957a2" d="M3230 3290 l0 -1750 30 0 30 0 0 1750 0 1750 -30 0 -30 0 0 -1750z"/>

		<!-- Letter E (positioned inside the circles to the left) -->
		<path fill="#c53040" d="M1332 4263 l3 -56 85 2 c47 1 93 3 103 4 17 2 18 -37 17 -838 0 -462
    -3 -858 -7 -880 -12 -80 -63 -139 -131 -150 -70 -12 -72 -14 -72 -56 l0 -39
    764 0 764 0 6 178 c4 97 9 225 12 285 l6 107 -44 0 -44 0 -11 -92 c-20 -166
    -70 -256 -173 -312 -101 -55 -128 -58 -490 -63 l-335 -5 3 454 c2 249 5 459 7
    466 3 9 56 12 218 12 201 0 215 -1 257 -22 56 -28 89 -90 97 -178 l6 -60 43 0
    44 0 0 305 0 305 -61 0 -61 0 6 -67 c4 -38 9 -94 12 -125 l6 -58 -286 0 -286
    0 0 328 c0 184 5 346 11 371 14 61 44 100 98 124 42 19 66 21 286 21 228 1
    243 0 297 -22 120 -48 183 -148 196 -307 l7 -80 44 -3 44 -3 -6 143 c-4 79 -7
    194 -7 256 l0 112 -715 0 -716 0 3 -57z"/>

		<!-- Letter H (positioned inside the circles to the right) -->
		<path fill="#c53040" d="M3490 4259 c0 -33 3 -58 8 -55 4 2 49 6 101 7 l93 3 -1 -859 c-1
    -592 -5 -872 -13 -897 -19 -66 -66 -101 -160 -122 -25 -6 -28 -11 -28 -46 l0
    -40 328 0 327 0 -3 57 -3 58 -106 -3 -106 -3 7 32 c3 17 6 215 6 439 l0 407
    58 6 c31 4 273 7 537 9 l480 3 0 -395 c0 -354 -2 -398 -17 -426 -25 -45 -73
    -82 -116 -89 -70 -12 -72 -14 -72 -56 l0 -39 330 0 330 0 0 58 0 57 -102 -3
    -103 -4 3 859 c2 508 7 873 13 895 15 57 57 95 128 114 l61 17 0 39 0 38 -330
    0 -331 0 3 -57 3 -56 85 2 c47 1 93 3 103 4 18 2 19 -16 17 -418 0 -231 -4
    -423 -9 -428 -4 -4 -245 -6 -537 -5 l-529 3 0 370 c0 331 2 373 17 401 27 49
    73 81 131 94 l52 10 -3 40 -4 40 -324 0 -324 0 0 -61z"/>

	</g>
</svg>
