<svg width="119" height="38" viewBox="0 0 119 38" fill="none" xmlns="http://www.w3.org/2000/svg">
<path d="M57.48 33L51.894 21.486L47.6 25.78L46.194 33H41.596L46.764 6.4H51.362L48.968 18.674L61.052 6.4H66.942L55.39 17.952L62.838 33H57.48ZM76.4384 33L77.0464 29.77C75.5264 32.278 73.4744 33.38 70.9664 33.38C66.9004 33.38 65.1144 30.644 65.8744 26.768L68.3444 14.076H72.9424L70.7004 25.59C70.2064 28.212 70.9664 29.542 73.1324 29.542C75.2984 29.542 77.4264 27.946 78.0724 24.602L80.1244 14.076H84.7224L81.0364 33H76.4384ZM99.5879 33L95.3699 25.096L92.4059 27.832L91.3799 33H86.7819L92.1779 5.26H96.7759L93.6219 21.638L101.716 14.076H107.302L98.7519 21.98L104.794 33H99.5879ZM114.81 10.922C113.1 10.922 111.922 9.82 112.264 8.148C112.53 6.59 113.898 5.716 115.494 5.716C117.128 5.716 118.344 6.818 118.04 8.452C117.736 10.01 116.406 10.922 114.81 10.922ZM108.046 33L111.732 14.076H116.33L112.644 33H108.046Z" fill="white"/>
<path d="M2.47684 7.48045C-0.825616 10.7877 -0.82561 16.1498 2.47684 19.4571L16 33L29.5232 19.4571C32.8256 16.1498 32.8256 10.7877 29.5232 7.48045C26.2207 4.17319 20.8663 4.17318 17.5639 7.48045L16 9.04661L14.4361 7.48045C11.1336 4.17319 5.77928 4.17318 2.47684 7.48045Z" fill="#FF174F"/>
<path d="M2.47684 7.48045C-0.825616 10.7877 -0.82561 16.1498 2.47684 19.4571L16 33L29.5232 19.4571C32.8256 16.1498 32.8256 10.7877 29.5232 7.48045C26.2207 4.17319 20.8663 4.17318 17.5639 7.48045L16 9.04661L14.4361 7.48045C11.1336 4.17319 5.77928 4.17318 2.47684 7.48045Z" fill="url(#paint0_linear_688_14542)"/>
<path d="M3.62179 10.5484C3.62179 10.5484 5.31398 6.76435 9.61907 7.21489C11.5819 7.53372 10.6941 9.45801 9.25241 9.37183C7.66175 9.58139 5.90594 10.0995 4.92323 11.1601C3.94052 12.2207 3.03359 11.4985 3.62179 10.5484Z" fill="white"/>
<path d="M2.99584 12.8311C3.21846 12.8965 3.27871 13.3812 3.25561 13.6874C3.19343 14.4872 2.46309 15.2557 2.18186 15.1415C1.85593 15.0096 1.95971 13.6261 2.61026 13.0133C2.68844 12.9386 2.85139 12.7885 2.99584 12.8311Z" fill="white"/>
<defs>
<linearGradient id="paint0_linear_688_14542" x1="1.2549" y1="6.36842" x2="49.7615" y2="50.2056" gradientUnits="userSpaceOnUse">
<stop stop-color="#FF8717"/>
<stop offset="1" stop-color="#FF174F"/>
</linearGradient>
</defs>
</svg>
